<mxfile host="app.diagrams.net" agent="Mozilla/5.0 (Windows NT 10.0; Win64; x64) AppleWebKit/537.36 (KHTML, like Gecko) Chrome/133.0.0.0 Safari/537.36" version="26.0.14">
  <diagram name="Page-1" id="QAGyPcGQhQIiEqZDX6iY">
    <mxGraphModel dx="4410" dy="2863" grid="1" gridSize="10" guides="1" tooltips="1" connect="1" arrows="1" fold="1" page="1" pageScale="1" pageWidth="850" pageHeight="1100" math="0" shadow="0">
      <root>
        <mxCell id="0" />
        <mxCell id="1" parent="0" />
        <mxCell id="gWL1Myv30mhK0BFrivG--37" value="" style="shape=stencil(lVvLchw3DPwaXVkEwefZSf7DVZZjVRzLJTuvvw8YhbtmY7ZHe5PX6N0hCTQaAOdB33379P7r40OK376/PP/2+NfTh++fHvSnh5Sevnx6fHn6bn896M8P+u7j88vjry/Pf3z58Prvr++n5fzr9+c/5zf8/YrLKSSdqBT/ef1kjFD7f5/88gr4/PRlB+R+J6DluwAa8n2AHHK7C1BDjHcBeojFAeJtQIkhJwT8v6pjgAZxaxAlgBIGnEMPtRBAD00RENNtQBW3hhYSA2gYAKhBySPVur7vAighk22tPejYATlouw1oMSjskoZEHqmloOAasjb6GJBDgl+IoVQCsEXXDdDH8q5jQA+y/0JvoRBfaiMM2QE1iNwGdMFd6pnGQ0+hwhr4ttp/d/gFCZUcXC8h7t7a4wraY4Atcfcl2zf6SC3ITjONe2u3c9gX3bjz2bnK7q1X7zoEmOeAL5n/JnLS5pu6P1Llix4JA2jGIFmDhYvuzFf5oi0gwVurOQthDQMM+IW4PjkGlFD2NRTOrcZCcHClhcEBkLLKyS61tesXQA6FLbqFttNMOdkl4+p9W2eKISFqgLwvOp+4Rg99X0Mu/BwGSgfL3IXt0lhLvABkRcgtQN+Tol6S2CFAYsTMrpX+xBFCaR49eKjTVdT96JJtNQdA4k01dLLsKRX2NaS8UvGts27wC7q+4hYg7YtOQslyOvjufsIVkw8hOQ3Suj+ScP42AKQUyeshbxENkKXwLGdUVgEg/OBMMQGAi4epXkAxcepzfG+0QJSAJZSyn0LjtBRRCNQwWJYeaz+u9oxYLeeO3b6ERkLHkjpIHztD8vymGjpQEg0ckyXgdJl6db+kgat9Ys+vK7leyCUMtj9WvgnYMwo21YVst+qOW1ISiSI0poY71m5pSctj+4apOYXIxHPB85LQmHZ2paEVNSQgm66i62rPuL0JJk2uXUzPVQV75s91YDyaPYnf6rI+55PaggrYM1VhalHweWjBltfxXO1ZPFoJmfB5qL3jK25vSrHh/lB7k13jHvu6tvtqzwS8VfFuvULOqyjyYVy68Ng+YfzyKqrIoo832rs+B3+ePDAf8fWaZi3xjv3PbdHx2/w5m9LH9VbCD1MSZ7DvhD/NXvbzlSVC3tjK4vxjihuKJ6H51Owr8hvTTGYPnQHOn2YfQfaFQvgqJyfiVnF3yz7h87M2ghUYFfeHCTKzj3herPuTI+brRFtkOnC9PD+aPfBPoq0fq48K1Bqr0LxlH/F5OolHbVjC8brB7GMGeyX7b9VaRv3DijEtyOeZ9tI0hx7BnulnqwWxiqb60ErBivqT5UeT7+A/heb3WQju9pXyyXV5V3vGJ9N9I9gzPkmuY8VrMOmoB07sWyhYL1D7ivmrUr6Sgp2eSvnKKsaB38/4x+zdfjL+sQKzoD3jH7mE67VeE+LPZq9Y37GO5KxfoUlK+cfsNYE9qxes3O3QqqZ8Ihc59cZ61vWpaf/IsS2fwfTlK1dz1vRrqN0G5ZKG0kpOtDaWvnJSW6xv+6FZwWK9OKnBa6+Criw8NxZs4AvPXY7KheeijINLs89Ma2Crxew70zIH7SXmPYrSU05yEbYSzL5Te6AeOclFrrTm/d+Epc4kX5ZbcLImfJyYnHRuVJsITh8t2bBeiCA3yKC9GUFpclIbGRVmtGe1haC/nWh5wVL8RKuKk5I8vmIY0Jrh8RJX5++HJjSbFEVsBU4GIOcbcWRyon1stzPas9wbnXTmuS4i+8/cRdfr7Zm29fZ8Tnxkz/jkyJ7xibNXXosf2bN85O25/1s2LGjPzxdKWU1L3N+y3+NRefc/4lxfOf97+0J7J0f2jJ8jTp/1zP+h9am89x+x1Feuxfygbazm15vtmV5y9pn3Pr09780c2bNawe2P2bPZiNv/zG8LuPPNvDfv/Dmf+TPEi9kz8eziN5/xP/BzPvN/0EuZz4JcPspcn8i6DXWxP6mNMF9nPrB0eiCf6ZMC9mf6BO53lTN9Anqp8NlCwosdhfcOE+r/wv3f6c/C+dmNasye7b/Tz4XrGUX/KXwWl7G0LlzPu/qlFN5rd3dMCu1tFxxGF66XqrthwnshFVtjhfcq6mKni32j5+tahye3dtqKjos9z0fNter4tQxXvpfBr38h3xaurzryW+X6aqD+r1xfDRyNVK6vBl4wrbzXLhELvMqHuQaAZnLl3XADwPSl8hJmdjTgeoLSO68GgCLAAMyJRJAlKu8SXJsgF0CmMsgAeG78cqYoXlauvLCaTceKAJYJJCNV1JM2a8YxTOW1vxQM5nrSGCx4k8YAjK2lYjlZeXhKw35Z4/lSOjYwGh9u+eZ44xlQBpZAjUu6qUkHAtguTdG1k17jF16mytlZrBU6AZ8yJCOAjVSnrtgDqPE8dR1RXQAnjSfFoUDjmWemfri3y0v7VDCAGq/VDQD3TDq/WDCz80AA7eY1lFOdt3eTu8LaOXvP9khBAN3WfnDLnCnmmRJhmsBL8Nmwrwhg3DqTIswfuHvPHokigGVpdWVO59w6b5/CGhpNu35G2RsfEgtya+98ipuQBAzAkqI67d+5tpqtmIYAOphVDKCT1zQ0u7dfuFzS4l4q4v1YA8CscvA74OoU+uC39wwA0mHwEl4bBtDg4mS2iDoC2J1a7TiVGCcB5GTx4OJEB9Zhg8+8DQAz1MEbBTm6F9R4xOWIo7PBS58s7j0nPvvIbk47+G3/g/f+eDfCAHDTbvByyQBwVWHwfl9WHACevDM3LycJAk7eLMSBLdd8s+PlXhRkNGOAjhe6eRfmDS9g2h/X1zc/Pn3+/Pr254//j6972kevr4rqz/8C);fillColor=#E6E6E6;strokeColor=default;" vertex="1" parent="1">
          <mxGeometry x="350" y="-147.61538461538476" width="601.1538461538462" height="484.6153846153846" as="geometry" />
        </mxCell>
        <mxCell id="gWL1Myv30mhK0BFrivG--35" value="" style="shape=stencil(lZ3Zshy3EUS/hq8d2JdnWf4PRYiyGJZFBUVvf++CGei5U9lzmveNEis502iglqwszIf8w5+//vTHxw8p/Pn1y+e/f/z3p5+//voh/+VDSp9+//Xjl09f7U8f8o8f8g+/fP7y8W9fPv/z95+//fcfPy3L9ad/fP7X+hf+8w3X0lHiQqXw32//Z/aj1///n79+A/z26fdnQG4eMAoCUhHABEA8ZvCAyYA8ngHjCAMA4WjVAxI8dJ1Hax5Q4BOq/fX0AFrW2o/kHnoeAZa11mNGD8gEKEcvHlA7APLRpwd0+oR0zO4Bgz5Bt8Y8ZgZAPGoVAH1C8KsUQzhCQEQO70IU2Ry3iHHM9F5EeOdn9CPk9yxVqcdoHkBvr5S9fb5zf5R8RNnjlQD2unWPx9eAbF9geEAggK3r85uwc9oI0LajeAOI4AmyrZJ7D+ZgEwD0FJlvAPeXbZXcOW14irJtcQGQJ0jzSN0DEmy+ZGviPqFikEj9iM0DCgHaBYDedKpHcgB7M/AeUjmK2615H9trQBafn/dnXgPS0dzWSHgeUjyGOw8RT1wy9+d2a8DYa4Dw7JHHREAUVzYGvunY/UMPTjiinLjRtsO9BhTvBEY9GuzWmI/snqHge4iWobhVyjswXQMk4RgJn2F6pzHs1cMjjKMOb0+nwV7C84Ee4Uiwt5tPyfo8CrgYe2fPG7Vb+kOB3a+P2QeK6/vbnvZ957HXkeQYz+vZGzrhsrO7075iClqOWLw9Oci8z8hpX44MzyuupecdGl/YR7eeaQeJ63O/d9dpH/cxfWFfnp1pD3tHvbB33rpZ0gRRU0qAZmGZ3ND+1057cyp05I/yvP9bu/k++fl9tYrrGf3+b2Wv2Av74L6/hQ74PuLXrcoK4ICCd4lWAk1Yn7Ad5rav/L6CX89VAOH3cUm21T8R9k/Yf3va1/1EL+zD83mx6ifD+p+59GmfduHwnfZxn9DvtA87F35l/7zfrADg543P/s3S/4rP65Kh0tCfh/23p33F+lf2jxUL7T37s3CuJWVd4VQrbO992ifMeOU8WimCWY33b2Yf4PuLPylhF3gv7F3dm5kdsLTw+bzkjvvZ/O3z81qd0zFeuOfNFeN72t7stC+cuO5oeNrf5N4+Hpk95TP29p/3Z0438c6VWGYf0b4/5ydWpHF8dPlAPiPIi/juylar6TrnA9PbRziP2ZN8lpGSf8s+/0yc7wm1lHh/lp3NvrGn/Lb4/HDVi5zvPe8HyzAzsSs+P09cMZRNKpz2lgGC/yw7e3ljT/mAcHtrB8L7lXx4nVDwP8X72+Vh2L55+4T5vIuPKyIQ1Xhhn9j+eX3iZDrWx1OzR4LYx1Ori2l9qo+nZp+4PnKkZL+pp1w8NXteHxcfreqmfEPqO7PP1DU4yvN5jHVnsC/sW/H2lG9LfRor+v/uiedYsL7uvj4ye6rvpB6PeWfI31fvx7T/hVeEQnUbLjIpIiSh/RO0g6KEyMkZhISYiRHM7LujRDBDtAV3Kf1AjxXFpXPXKYrL5Qw6ikvpeIKjHPmGFZjZj+TsMWMVmqyhx43Nl8x1k1qveLsYnT0R5ctBNWdPHtQcoDsCZS/Atf3c/PDDnio8LVEzrr9SBBkrpIsUlPnovAvkM4Thel6kKLiejwTmPPDocZVQj8iQJekvRabT++5JPOwz2Y+d0D7sI71f2Q9cgWUpycPOWV7Zu/3ATHqWkjPs/tq1vfS6ws7Rru2TP48BMw6zH/77EKOWhaIMWCFlSSnDPtDX9tJuDMiQ5eZLqoDn0Qre7N9XIUa26/qg/fAl7a19889L/moV+P77ZHre6buxgSsYocgCVwCScdzay/6n+FhExBEwwypR9wMxiCV5gUXACr4IJX5jL/78xl7ymVt72T9oLyXMrX171/NKvLi1H+9an37xfsl+eEqB7atQpszI1gv/jB2q5FtsYQfMa/vs858bnYpQIrf2ya/njX3x/v/Gvvv9c2M//f5Beymxb9azqr/C93sRj8ifVCmB2R+affX7n/x/lZKW42OVkjZg/WL2VeI720s+gAzE8GKfgIyy2We//pQvmX3z+5kY4qqaK8wPq2heIjKIq0Hm81XKz5u0eOJW5byy95QR5ttmP/zzUn3dpGUZWQeqhAIymk1aDAnrIxWmJtRZNclv004oru2V4kbGpZ2E7cN+0PcvmxD7vnqwiWolI2PXqm+Jcn1q9lLPkiimCYWYkSFrzdeDGeupJnxFwXht9u77F1TFNeE3uANv9tPzCY3Ol/hb5iua+NuKHfsm/pb5kza85IM7tG34fLVih79JflX5vEv90liTPT2/wfyV2XdvTwxrl3q/YUfO7L3kA9WwXSReHfPDLi3sjs/bpcXccT+bvaPcO9b7XeqpjiLSnvbjPfjYSP+++HNWiJi94w8H8lFdxMVjB5xX9n7wAflqs/cjAPz9s8835u5pXNuXHd4e9rjfRKIWw2aEXgF8TyjgwECv/gTHgCHDAO7IGAC7KtrWiiiD6DL0YABiRbo2qiI2krqk6QYgnq9LXRsTtta7SJ0NUGhnd79TDUCuuou60wB4FrqXnC9JLO0lIb8MgLtbG2IFy70+fPiLrJDsEm9WR4e2xjlKcALODf8K4Jt0lV+cTCMYgHLqoTUBB82hwyoNvdIQYZYBKI0dwZfFkZV6Q6RTBqjUKo07j3sD6PwJjomJA73GkNBmAPIaQ/TdqzsFW2OIHsoA5DWGCJzixPA5RIG0GmC0NYS/jBNb+iP7EaPFsDDAOYFFaTDAq2ZYNTykB7GKdtpLosNeVTV9gkTRVfbS1rhSzlDdMqROW51CetNSqK1KE9zMOKV3JyDzixO1R8rYixsSRRPPOwzRe6TMnk+qtYfk6xXAHdHV/yWA1GurwKO91P2JW6om2kvS4bwRkY1T8/MGQD22IT3y1bQnzydFW2pYRY65i9I3ACqDh5RtN8q8IUFxCS0AMINo+Xg2ZEoltqQlsKxTWlWWe1OveUrISpPHeVS/G5BNnDLpZQCip6a0g3NEJzClHlsdaFpWKchWCxq295SAskS2DHBzWDkjxz8loBiAMjIDOFGBASgoTmH9csHsfhZ/gNYAKG1v6cusTjq9BxGC5IpM4RSxauZ5uCmtxtwwwZoiPzUANR+mRNHcMfeeIkA1APmlKQrRNepLqyTVrgFoAnUqATswb53SwboR8U+R8BiAAsoCTA8gEcYUUdqaoKYXpyzyxME4A9Tn7V140nBK384AlC9NIREMQLnGArhhkBtXKVT4Q6zwCuCKJgNQeTyrn+cq3E2ZksKVhOzPbDLRkjAznqdg/g0An0EEAQYgBnFqByCj5GMBpgcQB2oAP2aTMbufkreuOSTafNqVKLy9my9eDYAhSwipwo2JBZgeQPXDFLF14VH6qa2VitypAdw40hofY4BLfwyAyYmwcAagAYIp7fXC+tep/aHG6U/zDc/CHY3ZPaNeuKUxhUk0ACa62rNqKDKcIqJb14rQieteNW4AkkVMuQ6gcF9jiq7YAJh7i7DPAHge5E6QwvcPTbntovCdIFO0Dgag8Ymp4ujBWaWoDQ1AnPGUSrHwPQ5T9BSFr1p53MTyBkBMogEcmWMADFki2Sh8v8y6TaZ6AHqN6emiwhcWTVFl3gz+TpGRVNYVTbl9qLIQdUrjtLJS6HGrzxsARlEp8StrpddFQ8/bu3If6BJA9OklAE/cFYD0No/Lkt4A8MRNX9IYYPBXcoq5GrGt8+aKqBPBWeI1Asc2LhGUHF8jyJldIygXvUZQcXaNwIGnC0TmoexLBLnAawSVgNcIEgZdI3DU6BKB121cIijzuEYQ13mFKOhrrxE4xHWJIBnnxaEtXM6qW7jJ99XxFK7h1bWV97rnitrJiwBQme7UEMPzmxdRr2ILY0rz1gDUKZ0yT1R54G1KP3lJihngFB+13WZQ1QNu8kyXoxkAMygVefHU4RQVbm1MgqnsrGNLb0qTpPKgpabvBiAHOFVp1+/KqC6fQNrmKa2kyuKq2f0wYR3MhPfd0H4DwBMntaMB8MRJObsU2wxwNfzNnUBKXFTuui96R74SacSU0zIAplwyhFtZVabsZZ3MywkpXPmmAWXCDYBcilzTaQBsJYkSrd5URXKbR+VZ8SmzUksNz4AoAFxWuVCl8TjZFH1F4/k5A7gT127qruQF0gbA6lQvNQuYZc0oI+B8y9fUa8F4yHbKvVEGILZGu72NLw4ZEkXXzWZwptd1k8MDEukrhEtZowYklxB6xwA0SjGEcWo8KzCEBDMADWsP4eXajeRDpvcbjxcMIVRbRjczhKduXEWoqMQAqPuSrooBiLId4owbFwRDnLEBiLIdMsS27vlj+VATAKpQZIyk8U0lQxrQrWLqMOQijsa595DLKNdsCZ1p9d4VtehDpAaNr4sZ6oxvdC5RtnfDoDhETr8GRug8RHH3fAXPENmKAXBrqDPuKFDqUim2gcVrF7qz8bVeXSjbxxjINUAKjsayxi71gwGoU9plLmZNdpC2Wbx357vVVG7dI49+SJNkDWvQskp23/k6YNWYd1Ypdulu9cTjJdID7KxS7JKsr4kNenEyULZGMEhYr5cIn3LQVwB3gAyAM0F6jXBFcr4Xn810Fux1SaVvLiruIsLtLKfrkhnbCcExELkIap1yngxyXcbOd4h3yYyXL6RnEHXc4OvluqTSI2Jm3EWwNxKq2LtcF/TQU78EJA8gnq/LnaGDpWhdyoGVfdCblhGzJV7m9+BEJSvlok8QpeXSItOyypTcShtpWYMXQw8WsBrACZSWtJg/wXmNlY3DJzShgFe+z6OQLkkcN79nI0XT4PawhXE38GMASqWbXjB/cwG8jP8P7pQ2qYEm676alDSTJ/Sb6FzWryfQKulvfSRMHZr+hErCLkcTddzSwDIgCYCox1Z8zjdZoNT0V11uBqGL/DhI4bsds/zACQtYm1Qok91ME13wzc+P6GUAk8U9q3rOHoAvTn/7pmFAafozMPyzF00C+2JgGeBo7Mninqa/V8Linpb8zPviqWm36qWTnZ2A3Lr34NpfARxzMlk+1KS0vP+BNJeRrQbDDUAeGg+QTJvd/d6ZzGpPJvu/41fh7A+P35T75dNvv337Sbq3f+9/g87+17ffr8s//g8=);fillColor=#E6E6E6;strokeColor=default;" vertex="1" parent="1">
          <mxGeometry x="-220.7692307692305" y="143.1538461538462" width="892.3076923076923" height="1164.6153846153845" as="geometry" />
        </mxCell>
        <mxCell id="gWL1Myv30mhK0BFrivG--36" value="" style="shape=stencil(lVzLchw3DPwaXVkkwefZSf7DVZZjVRzLZTuvvw8YhbM7jZnmzk2W0N4ZEgQaDXCf5N33T++/Pj9F//3Ht9ffnv96+fDj05P89BTjy5dPz99efuhPT/Lzk7z7+Prt+ddvr398+fD276/vh+X46ffXP8f/8PcbLgbX+kBF/8/bb3pzJfz3m1/eAJ9fvtwDovNXAeEqIKWLgNouAcTFegmQnC8G0AggO58R0CIBFBdkD+jOCwFUFyMChL1Dc6EgIDOAPkBCQGXv0F0z79DKOUC8K+YdOnlpCS6FHSB477wnCPW+fBXR0jWEOGlXEfUiQj0wXkWAkz+AKBc/I+O5eABR/TVEcblfQ1RXL755dwmOK3fEFJxUBNROAOJSR0AmESRll81xZec7VSfmEwJ56aR/3h+mRYzK3mUTmP//zTFAk4uJs5EEhKyBGR6pus4eKZlHqq6wRyp4jhQg7JHqwSd4snG5m08orpGNK94lj4BMnK8EVxMCYiYAcQEeKbteCUCXNSOgklUqZSarO0BmgOpSQYCwd2jzfN0BIlnW6g9e2pOXrsFlbwDkAFXNFO0SIE3vfxSQjfMlGpdqmSf4DsDiUrWsING4VLsJZInGpeYnadgA4jpxjaZRwyOAhZkWDYeNrpOXbjK9/w4QGSCbUBnoEW3FCWycch0G0POw96XG2VlrmB8aj636/5X9KulDdrKs44nhkfLc+2NAQP7QEs1Auupw4nQrWfRWR4jwDsEF4q3qmxCXKs/T47js30FPiJCNG2ELAGWGhTNA2/uSnvLIAOpL+1WqQqsVBdR99NbQRh+pYok2gifbhzpjxARoeE5spyuWBpoxKvuEhhtXeLhXQIBHElqiKQA2rsRZUp0BMgD8PFJnAPAl5QaBZKDBv/ZxSdlHZS+tXGPvS5kzgW44X+b5QQGQspSj0fPQsUQbLJC/AwQy5Zl0pzu6d+LF+KhCAVBnVXgG6ADIdKfv6osNwbPiESJSqnuE0IBLDt0RwtNQc4CQRpO1XSpZuixshhZ4wj0QKkatIWlw2hLnBuCEw/q4RP4O25psAE4Hhlq0jwTCN8JGs7jYh4rJOvJCaMT8PUOJi9BRsCaInIuOGmO/D3GRt/KMjhsg0tpsMM99kohhxrcz/gA1cuAKlTIUKFPCItaoI4D2UCfJOWVZ+3cIZSamB3lc4OdBeWGBd1gQcMNFAz8PSiQjSGYLepzwAAVPqz9l7LBKfX7kWUkAnKlNinNWpHRgcZQL2CqIb5qSSBDKlEoz+4LHOblC1kcpJDg232KtRIEHCOVvttTlyapumelmz06B8k0gY5Fm6NKRHnKSUepcvps9lViKEU+5wpJQnQhTPD9TZGS//n4S5DPJpwvYs3JyMNMM9szflJgCt+UcLLe5fDd7pq0MFa2jPfEHpbG1XLP3+PzUfiu5HrRPM5k+bO8v2QtWwkt7b9aHrX/EHMALPLUH/1/4g1F6eTxX+4TrT/0zTM31Zs/kRS0hzH4x/XKUHLj+TCBN3cYTFh/UHhsllLprRZMw/jCtJpn6mgtaag8ZmwsvqeD78viv9vC+QvOv1lcJ7Znkp9UV+JtMDfDMPmI+ZfwhCZIsroqqfYBKi/ePDK/kGpBWetDSyjT+q73f2xeaj7QuBL2SF2XS8XzxHofaQ11ZqX9q1Qn5kVeVWnSW/fu22U8/s4d4sh24Y/uCQnybIsSZPU5JUCXUtkX7HII4s4f14bKmJKzFAk8ACsA6hkf00W6OCGAhehTlggAWo0WQEyug8y471jG8PFRANABG6xUA27wofMS0KkKgOqhEPGiBZwIFQCtbizfWrxRTKgWugx6MVPAyXQHefELiYx7NfEJmxzOYEpfnszFIYgCVrVJAjSjwDCgmAgfelBKPKS1sJO8MgOMawoOeR7kk8KysQaU3BLAekwJwVoOrxSMspkuAZojXEhCM+kEBdYpUjwNwpxeAgt2TNcBfWyXTN14DgL+sAMnM8SwBcm0fEvY2VgA5OA9M1IiCM3cDQMLMEDHMxtG5wTCP/B2A8QYFYPQWPjfop375oLg3CjnwVt6kDd0IlIvWRjM5jpNnBcCwpAKYKhuqqaZ4c1D/jIGMj6eMB0gIYAXh2CbwVs6gNRtguOcd0ZHGYR/4INLgLgkBLO0O/uURwJLi4JBGHWcZqE8Sf2fPDlw3nJJPqCkphyVayMQm+3AaXVGlGbIFsS+Tn272nIAWjJGRs8OMqvWi7M+oKkTOejK63EImNtN4MdEhZqOSxUQnjMW0oPhEimAKWfS4InYOR25n8R0z/6JMDaZJx8cmgulv8aHwYNaTD5l6HCQUXhV67HoIl6G3knGz57K4UeFuPP3EPhh7JkN4TDTCayPbDeeFy5F9I/5m7TnFObJnspe1T1RWsPZ8PvHInvsD2vPzeGTPil9rz5vgR9MOrL45sl+sP/gbH+oz/pxW5zEaeyaheCz1xxw7fX7oKiYuPpgB8cTrdm9UVl6QemSWibNj0zVIia5/MCrxgldiF0ztmSIV8NrH0NVZwYH5JXEGF/FWQuJ8zHSFEvdn03W69UFO7KGayZwvCfKlzP0zIcPNXLpKyA8zl1gyFoiZ+1vGLmrm/mb4W+b+VlD1zdzfCvLtzG8WVIxXmQ/KVby5sJhXrMg38mIsA+XVzKdv2jwdmz0fuGx4HjO/4dbxSkFZjHHNpuadPWvzd+x6F+7/owALCGABOpi7JoUPZtiasPAjMzT5jACmkQxNHlpJvDcXAmalwlmKAooBsG0YEjvMEi9rcyDqhROPIU+DZ/BK2MoFhV8HG9LuHlB5C3+oa3vnq7ynfdO+NsDClwS1qsrpa0gYjyq/JKSACADel1QAnIfKI1IwN6MqL7EUADGv8RooZCzi2mJZM14/bVwCVACEvcXFjlDQl9pCeiqmHcv7paGai3+cKSgALwnxUm4oTXAjh4u9CoAg0Lk4ETqywcWluVEe7INA52Fm1N9wWatSfj2mWMwVT9rxCXiAVhfdg7kpuLi3HnB6f3Vv3X5DweLeejy4t85Y6sE3FCwuuseDq7YLADQO1gD8SoMFQMwFzCUAvwNhCQByuwbUq58AU8ErQDr4SoMFQK4C7C1s6kvpwL1ZfhiDQhbA3Dtj+73zWZGYUYVbA7Jx7wWgmRNHAQUL8zVAjHsvABiMl4B6FQDF2wpQzYXkJUCuAkC/XgOKcW9h3lqxzWWit/5w+7KZjy+fP799V8393/HLafRXb19sIz//Cw==);fillColor=#E6E6E6;strokeColor=default;" vertex="1" parent="1">
          <mxGeometry x="650" y="303.1538461538462" width="780" height="553.8461538461538" as="geometry" />
        </mxCell>
        <mxCell id="gWL1Myv30mhK0BFrivG--32" value="" style="shape=stencil(lVvLchw3DPwaXVkkAb7OjvMfrrIcq+JYLtnO4+8DRuHsTmOmd3WT140ZEgCBBoh5kHffP3/49viQ4/cfL8+/P/719PHH5wf55SHnp6+fH1+efthfD/L+Qd59en55/O3l+efXj6///vZhIudffzz/OZ/w96tcCZqnUI7/vP4wNMT23y+/vuK/PH3d4avDZ2X4IYgXOcfXoIr4ks/xLaSK+EbxoyB+pHN8Dw3wJaR4jh9OPyUIwacYtKOADiKQnMVK6GQHKQcBFVVq4iRBOgoIW5KZNKNALUTAdOje0IkXmcAAgUbNkGwBggKZ+F2y/3ZvUOJIJoCe3UJhm+6hVhSonQiM5flXAoNoKZsvwRt6SGTT2XwpogCzdDZfUhRgls7i1NqppbO6ADCopfPm/VcCme2huU2PdQaPBcY6LlcCzHASnaUHPaKS3XkY1NIioY6dQIoxRKImKUspd0u0EPPbJCxYun2zbWhcoe5ORWlewfTaFExAwnBL+j8cHguU0NwbmP9pc+HV1EC8Q7tz2B6UnKESQy4oQHN0cntoKy0dC9gpdZGGRcuibg88gJfqDl1dwepYwEKdyykslpWBDm55sRG11hiaogDbdPWnlHONKi4JcXJVi7ODBGVLqs4OmTpfNVdrKMCW1GJIoKVECU1LoYOl47L9sYBg1uqW+JhAWY6wCVgSYgKmJXhDW/HzWKBj5u01NCLQTUt75+uWlohrdNPS/kx3XYs8FhDMi/ZLZ0tSjHw9h8EE6iLmVwKJHCBTYoE3pKWGY4G+lLgJRPoG85y091azDNuD+WbZa6m10Eh+MO8f+wNkzsJo3+UEbwKFJkULKhHeILSiGY7Q2JEa5IhaYCx7w9mhZYFsBve9882wwNTaQt+/wQIPSygzo+33UHVxgzOBvjecRVvm3pPk7cOMxfPBfMmCyt5wljEi28NYkXQTqOtInQlARWBpctDab+NTm0SmrziSSKsCvldCOd09kmiUlfmNa11OfyYAAVl1mfNOWxgTZEll0sK9P+lGys8EgIoamx1ETdMB90sywix803G/adm45tmZAAokpiX2ho68zwoLllTmMYU9pHVKzgQgz1mtk5mWGpYEeVPDmQD0EqxeY8xythr25zpXWofP+LrftJWQmS1JVxGzCQhfkmByt7qZJhUjbbCHRMmuz3NprHeeZdIMAp1GcMvVsOnUKGGflAoEjFAQX/J8I5XVXTgWsEwKAsrfIKGBgCz6eyzgWmUpL45zRuPgTKe03nnMLMfKCJeimqat5qpFE0jkxBnhQf5N99yqI2U0UzdXIFtMII7UFDuibfnuWTkArs2zbsureL7glT0/LZ/ZMujKXmcFEMT5QtNndcRkc9uziiztDaw0BNeGp0Ap6baaEvxBVt17jNdVfF3wrJ1mRW6CgE1JT02rYXPBF5LUjNbFAXi239KR51mpxZolps8CeJY+Slm15gWfif8bB4Qbikj1UzJSnbgC61mzRxH/tm5SpNlPB7YBI01NxhUhnkSa8I0qQt7gTUYtyzx34hX97QZe8MbnBj7jjdJNfHoTPq0O0J36jN5/qL0idlO4P8jw/sauDIxGd3w+K3/FxcNIK3hj3Yr6ZORMKsbDROOz4RPGB1ZwGal38YfFT+P0wPITzS+zBsDn08sIwfOSaL6bJcPeXjzeGj4insUfqzCAiWZu34j5Wqi9Jt0RwAu7oep4n8rzo9EXcfmX+HPe7k4veKYfowvQe9RVHBzjFf2Z8w3D5wx4VsGZOiA+F8rfDJ8Q39n9XcYuYuX6THgVzPmev+OsXJ8R439bBOQMjz3K1fs6bq8M5A+NVgyGj8jPI79mLh3wwto99jjEs66ElYEF6wvWRrMqEC9yuH6qu2KmrXcrGqHDcKNAmlWmoEBlFtDVyr8q8iJ7g5uHMAHWfLKyFIu8THtJJgCk0n6hS9pI9pUAa2+lhD29qQYuIJBnCm1JmNahS2KmZxd2c1QG9mC+yHrE2NtPN9rceDdmZ4/NKg1kKpn33ftK1Hd2eTpmjswvArrLxJn2bRuOKVjsLqy1gHNBM5ewazS8+ZipiRyDum5Tr/CMylXs1tgvjApV7GvPVgTBF8x8uVNqVlZ39qrXyUKv4p3HbKaSUKqYKSXxUgCZouFZ6lOshI3bsdaRIFM0rskir+vsyPaEEzxUqsZ92Xoy3ngaF6dUAs+jFNr6yngepdJLiIzMwGqVxKI6VpLS6HoSDjBY7cTWk5BZyrixHhi2MTxfDyQljbRlnDA+WK2biH0jtqQ10d5pRGasfDgirlG2DS+0Rx6RaSmfVY2Yg7XQWaSIlYxWmo8ixkPlI4wRKwHlw3wRr74Lb0Uc3VWy1prHC6XebjSlKG0lOv2UQq/HnD8UXgo4/yydM1E8L3OG6S3nsd5gulg510THLTw+v/H5Qi9wPF7poI/HF06jnX4qHfNJi61teM4nnb3m2AQrHDC+1bE89ixeNcQzBh2RL7VI+a2LVy3R2S8XrwzP4wPiM+XDR3jGVz1eaOvR45W2Rrx+lA6XuvgwJ9PoeiAfNc5vnf/M2aS3xJPW6HrceTE8nT7B89g6bZV5/KDx2eE7Hy7w+ET53hGe7xc6y52PU6QVPTa8vI2/daWtNccPe6FdgrwGl6/wjC9l7Mz2bbLsBA9zZ73RfLFNdF3h2ZCkYOeud7oewbv1Pui3SYqdJsOzFoe6cV7Ob11n3/Cs5+Lqx5FoPC+uE5fp2FXBqSvDs/VX991DpvmouglsoXy+Yny+Ne2M+W4IH+PF+Gl49jlCQz4w+FSau3ma37bR9eBnIbe+bYNBJcOz/Nux3rwxn+76S4Zn9u3YuZ6TUfRbwVvfFtoflw8TPz19+fL6XeP1/+OHjPbT60eQ8v5f);fillColor=#E6E6E6;strokeColor=default;" vertex="1" parent="1">
          <mxGeometry x="741.1538461538457" y="913.9230769230767" width="531.9230769230769" height="596.9230769230769" as="geometry" />
        </mxCell>
        <mxCell id="gdJZIKCDMwB3gfGJZfGT-9" value="&lt;p style=&quot;margin:0px;margin-top:4px;text-align:center;&quot;&gt;&lt;i&gt;&amp;lt;&amp;lt;aggregate&amp;gt;&amp;gt;&lt;/i&gt;&lt;br&gt;&lt;b&gt;Event&lt;/b&gt;&lt;/p&gt;&lt;hr size=&quot;1&quot; style=&quot;border-style:solid;&quot;&gt;&lt;p style=&quot;margin:0px;margin-left:4px;&quot;&gt;+ Id: EventId&lt;/p&gt;&lt;p style=&quot;margin:0px;margin-left:4px;&quot;&gt;- title: Title&lt;br&gt;- description: Description&lt;/p&gt;&lt;p style=&quot;margin:0px;margin-left:4px;&quot;&gt;- startDateTime: DateTime&lt;/p&gt;&lt;p style=&quot;margin:0px;margin-left:4px;&quot;&gt;- endDateTime: DateTime&lt;/p&gt;&lt;p style=&quot;margin:0px;margin-left:4px;&quot;&gt;- visibility: boolean&lt;/p&gt;&lt;p style=&quot;margin:0px;margin-left:4px;&quot;&gt;- maxNoOfGuests: MaxNoOfGuests&lt;/p&gt;&lt;p style=&quot;margin:0px;margin-left:4px;&quot;&gt;- status: EventStatus&lt;/p&gt;&lt;p style=&quot;margin:0px;margin-left:4px;&quot;&gt;- location: Location&lt;/p&gt;&lt;p style=&quot;margin:0px;margin-left:4px;&quot;&gt;- guests: IList&amp;lt;Guest&amp;gt;&lt;/p&gt;&lt;p style=&quot;margin:0px;margin-left:4px;&quot;&gt;- invitations: IList&amp;lt;Invitation&amp;gt;&lt;/p&gt;&lt;hr size=&quot;1&quot; style=&quot;border-style:solid;&quot;&gt;&lt;p style=&quot;margin:0px;margin-left:4px;&quot;&gt;+ Create(event: Event): Event&lt;br&gt;&lt;/p&gt;&lt;p style=&quot;margin:0px;margin-left:4px;&quot;&gt;+ UpdateTitle(title: Title): Event&lt;/p&gt;&lt;p style=&quot;margin:0px;margin-left:4px;&quot;&gt;+ UpdateDescription(description: Description): Event&lt;/p&gt;&lt;p style=&quot;margin:0px;margin-left:4px;&quot;&gt;+ UpdateStartDateTime(startDateTime: DateTime): Event&lt;/p&gt;&lt;p style=&quot;margin:0px;margin-left:4px;&quot;&gt;+ UpdateEndDateTime(endDateTime: DateTime): Event&lt;/p&gt;&lt;p style=&quot;margin:0px;margin-left:4px;&quot;&gt;+ SetVisibility(visibility: boolean): Event&lt;/p&gt;&lt;p style=&quot;margin:0px;margin-left:4px;&quot;&gt;+ setMaxNoOfGuests(maxNoOfGuests: maxNoOfGuests): Event&lt;/p&gt;&lt;p style=&quot;margin:0px;margin-left:4px;&quot;&gt;+ Readie(): void&lt;/p&gt;&lt;p style=&quot;margin:0px;margin-left:4px;&quot;&gt;+ Activate(): void&lt;/p&gt;&lt;p style=&quot;margin:0px;margin-left:4px;&quot;&gt;+ AcceptInvitation(guestId: GuestId, invitationId: InvitationId): void&lt;/p&gt;&lt;p style=&quot;margin:0px;margin-left:4px;&quot;&gt;+ DeclineInvitation(guestId: GuestId:&amp;nbsp;&lt;span style=&quot;background-color: transparent; color: light-dark(rgb(0, 0, 0), rgb(255, 255, 255));&quot;&gt;invitationId: InvitationId&lt;/span&gt;&lt;span style=&quot;background-color: transparent; color: light-dark(rgb(0, 0, 0), rgb(255, 255, 255));&quot;&gt;): void&lt;/span&gt;&lt;/p&gt;&lt;p style=&quot;margin:0px;margin-left:4px;&quot;&gt;+ ExtendInvitation(guestId: GuestId): Invitation&lt;/p&gt;&lt;p style=&quot;margin:0px;margin-left:4px;&quot;&gt;+ Cancle(): void&lt;/p&gt;&lt;p style=&quot;margin:0px;margin-left:4px;&quot;&gt;+ Delete(): void&lt;/p&gt;" style="verticalAlign=top;align=left;overflow=fill;html=1;whiteSpace=wrap;fillColor=light-dark(#CCFFCC,var(--ge-dark-color, #121212));" parent="1" vertex="1">
          <mxGeometry x="45" y="360" width="450" height="430" as="geometry" />
        </mxCell>
        <mxCell id="gdJZIKCDMwB3gfGJZfGT-10" value="&lt;p style=&quot;margin:0px;margin-top:4px;text-align:center;&quot;&gt;&lt;i&gt;&amp;lt;&amp;lt;Enum&amp;gt;&amp;gt;&lt;/i&gt;&lt;br&gt;&lt;b&gt;EventStatus&lt;/b&gt;&lt;/p&gt;&lt;hr size=&quot;1&quot; style=&quot;border-style:solid;&quot;&gt;&lt;p style=&quot;margin:0px;margin-left:4px;&quot;&gt;CANCELLED&lt;/p&gt;&lt;p style=&quot;margin:0px;margin-left:4px;&quot;&gt;&lt;span style=&quot;background-color: transparent; color: light-dark(rgb(0, 0, 0), rgb(255, 255, 255));&quot;&gt;DRAFT&lt;/span&gt;&lt;/p&gt;&lt;p style=&quot;margin:0px;margin-left:4px;&quot;&gt;READY&lt;/p&gt;&lt;p style=&quot;margin:0px;margin-left:4px;&quot;&gt;&lt;span style=&quot;background-color: transparent; color: light-dark(rgb(0, 0, 0), rgb(255, 255, 255));&quot;&gt;ACTIVE&lt;/span&gt;&lt;/p&gt;" style="verticalAlign=top;align=left;overflow=fill;html=1;whiteSpace=wrap;fillColor=light-dark(#FFCCCC,var(--ge-dark-color, #121212));" parent="1" vertex="1">
          <mxGeometry x="125" y="190" width="110" height="110" as="geometry" />
        </mxCell>
        <mxCell id="gdJZIKCDMwB3gfGJZfGT-11" value="&lt;p style=&quot;margin:0px;margin-top:4px;text-align:center;&quot;&gt;&lt;i&gt;&amp;lt;&amp;lt;Enum&amp;gt;&amp;gt;&lt;/i&gt;&lt;br&gt;&lt;b&gt;Status&lt;/b&gt;&lt;/p&gt;&lt;hr size=&quot;1&quot; style=&quot;border-style:solid;&quot;&gt;&lt;p style=&quot;margin:0px;margin-left:4px;&quot;&gt;PENDING&lt;/p&gt;&lt;p style=&quot;margin:0px;margin-left:4px;&quot;&gt;ACCEPTED&lt;/p&gt;&lt;p style=&quot;margin:0px;margin-left:4px;&quot;&gt;REJECTED&lt;/p&gt;" style="verticalAlign=top;align=left;overflow=fill;html=1;whiteSpace=wrap;fillColor=light-dark(#FFCCCC,var(--ge-dark-color, #121212));" parent="1" vertex="1">
          <mxGeometry x="740.28" y="-100" width="110" height="90" as="geometry" />
        </mxCell>
        <mxCell id="gdJZIKCDMwB3gfGJZfGT-12" value="&lt;p style=&quot;margin:0px;margin-top:4px;text-align:center;&quot;&gt;&lt;i&gt;&amp;lt;&amp;lt;value&amp;gt;&amp;gt;&lt;/i&gt;&lt;br&gt;&lt;b&gt;EventId&lt;/b&gt;&lt;/p&gt;&lt;hr size=&quot;1&quot; style=&quot;border-style:solid;&quot;&gt;&lt;p style=&quot;margin:0px;margin-left:4px;&quot;&gt;+ Value: Guid&lt;br&gt;&lt;/p&gt;" style="verticalAlign=top;align=left;overflow=fill;html=1;whiteSpace=wrap;fillColor=light-dark(#FFFFCC,var(--ge-dark-color, #121212));" parent="1" vertex="1">
          <mxGeometry x="540" y="730" width="110" height="70" as="geometry" />
        </mxCell>
        <mxCell id="gdJZIKCDMwB3gfGJZfGT-13" value="&lt;p style=&quot;margin:0px;margin-top:4px;text-align:center;&quot;&gt;&lt;i&gt;&amp;lt;&amp;lt;value&amp;gt;&amp;gt;&lt;/i&gt;&lt;br&gt;&lt;b&gt;Title&lt;/b&gt;&lt;/p&gt;&lt;hr size=&quot;1&quot; style=&quot;border-style:solid;&quot;&gt;&lt;p style=&quot;margin:0px;margin-left:4px;&quot;&gt;+ Value: string&lt;br&gt;&lt;/p&gt;" style="verticalAlign=top;align=left;overflow=fill;html=1;whiteSpace=wrap;fillColor=light-dark(#FFFFCC,var(--ge-dark-color, #121212));" parent="1" vertex="1">
          <mxGeometry x="-155" y="390" width="110" height="70" as="geometry" />
        </mxCell>
        <mxCell id="gdJZIKCDMwB3gfGJZfGT-14" value="&lt;p style=&quot;margin:0px;margin-top:4px;text-align:center;&quot;&gt;&lt;i&gt;&amp;lt;&amp;lt;value&amp;gt;&amp;gt;&lt;/i&gt;&lt;br&gt;&lt;b&gt;Description&lt;/b&gt;&lt;/p&gt;&lt;hr size=&quot;1&quot; style=&quot;border-style:solid;&quot;&gt;&lt;p style=&quot;margin:0px;margin-left:4px;&quot;&gt;+ Value: string&lt;br&gt;&lt;/p&gt;" style="verticalAlign=top;align=left;overflow=fill;html=1;whiteSpace=wrap;fillColor=light-dark(#FFFFCC,var(--ge-dark-color, #121212));" parent="1" vertex="1">
          <mxGeometry x="-145" y="520" width="110" height="70" as="geometry" />
        </mxCell>
        <mxCell id="gdJZIKCDMwB3gfGJZfGT-15" value="&lt;p style=&quot;margin:0px;margin-top:4px;text-align:center;&quot;&gt;&lt;i&gt;&amp;lt;&amp;lt;entity&amp;gt;&amp;gt;&lt;/i&gt;&lt;br&gt;&lt;b&gt;Location&lt;/b&gt;&lt;/p&gt;&lt;hr size=&quot;1&quot; style=&quot;border-style:solid;&quot;&gt;&lt;p style=&quot;margin:0px;margin-left:4px;&quot;&gt;~ id: LocationId&lt;/p&gt;&lt;p style=&quot;margin:0px;margin-left:4px;&quot;&gt;- name: LocationName&lt;/p&gt;&lt;p style=&quot;margin:0px;margin-left:4px;&quot;&gt;- capacity: LocationCapacity&lt;/p&gt;&lt;p style=&quot;margin:0px;margin-left:4px;&quot;&gt;- startWorkingTimeDate: DateTime&lt;/p&gt;&lt;p style=&quot;margin:0px;margin-left:4px;&quot;&gt;- endWorkingTimeDate: DateTime&lt;/p&gt;&lt;hr size=&quot;1&quot; style=&quot;border-style:solid;&quot;&gt;&lt;p style=&quot;margin:0px;margin-left:4px;&quot;&gt;~ Create(location: Location): Location&lt;/p&gt;&lt;p style=&quot;margin:0px;margin-left:4px;&quot;&gt;~ UpdateName(name: LocationName): Location&lt;br&gt;&lt;/p&gt;" style="verticalAlign=top;align=left;overflow=fill;html=1;whiteSpace=wrap;fillColor=light-dark(#CCE5FF,var(--ge-dark-color, #121212));" parent="1" vertex="1">
          <mxGeometry x="110" y="913.83" width="295" height="166.17" as="geometry" />
        </mxCell>
        <mxCell id="gdJZIKCDMwB3gfGJZfGT-16" value="&lt;p style=&quot;margin:0px;margin-top:4px;text-align:center;&quot;&gt;&lt;i&gt;&amp;lt;&amp;lt;value&amp;gt;&amp;gt;&lt;/i&gt;&lt;br&gt;&lt;b&gt;LocationName&lt;/b&gt;&lt;/p&gt;&lt;hr size=&quot;1&quot; style=&quot;border-style:solid;&quot;&gt;&lt;p style=&quot;margin:0px;margin-left:4px;&quot;&gt;+ Value: string&lt;br&gt;&lt;/p&gt;" style="verticalAlign=top;align=left;overflow=fill;html=1;whiteSpace=wrap;fillColor=light-dark(#FFFFCC,var(--ge-dark-color, #121212));" parent="1" vertex="1">
          <mxGeometry x="-95" y="1020" width="110" height="70" as="geometry" />
        </mxCell>
        <mxCell id="gdJZIKCDMwB3gfGJZfGT-17" value="&lt;p style=&quot;margin:0px;margin-top:4px;text-align:center;&quot;&gt;&lt;i&gt;&amp;lt;&amp;lt;value&amp;gt;&amp;gt;&lt;/i&gt;&lt;br&gt;&lt;b&gt;LocationId&lt;/b&gt;&lt;/p&gt;&lt;hr size=&quot;1&quot; style=&quot;border-style:solid;&quot;&gt;&lt;p style=&quot;margin:0px;margin-left:4px;&quot;&gt;+ Value: Guid&lt;br&gt;&lt;/p&gt;" style="verticalAlign=top;align=left;overflow=fill;html=1;whiteSpace=wrap;fillColor=light-dark(#FFFFCC,var(--ge-dark-color, #121212));" parent="1" vertex="1">
          <mxGeometry x="-95" y="930" width="110" height="70" as="geometry" />
        </mxCell>
        <mxCell id="gdJZIKCDMwB3gfGJZfGT-18" value="&lt;p style=&quot;margin:0px;margin-top:4px;text-align:center;&quot;&gt;&lt;i&gt;&amp;lt;&amp;lt;aggregate&amp;gt;&amp;gt;&lt;/i&gt;&lt;br&gt;&lt;b&gt;Guest&lt;/b&gt;&lt;/p&gt;&lt;hr size=&quot;1&quot; style=&quot;border-style:solid;&quot;&gt;&lt;p style=&quot;margin:0px;margin-left:4px;&quot;&gt;+ Id: GuestId&lt;/p&gt;&lt;p style=&quot;margin:0px;margin-left:4px;&quot;&gt;- firstName: FirstName&lt;/p&gt;&lt;p style=&quot;margin:0px;margin-left:4px;&quot;&gt;- lastName: LastName&lt;/p&gt;&lt;p style=&quot;margin:0px;margin-left:4px;&quot;&gt;- middleName?: MiddleName&lt;/p&gt;&lt;p style=&quot;margin:0px;margin-left:4px;&quot;&gt;- email: Email&lt;/p&gt;&lt;hr size=&quot;1&quot; style=&quot;border-style:solid;&quot;&gt;&lt;p style=&quot;margin:0px;margin-left:4px;&quot;&gt;+ Register(guest: Guest): Guest&lt;/p&gt;&lt;p style=&quot;margin: 0px 0px 0px 4px;&quot;&gt;+ RequestToJoin(eventId: EventId): RequestToJoin&lt;/p&gt;&lt;p style=&quot;margin: 0px 0px 0px 4px;&quot;&gt;+ JoinEvent(eventId: EventId): void&lt;/p&gt;&lt;p style=&quot;margin: 0px 0px 0px 4px;&quot;&gt;+ LeaveEvent(eventId: EventId): void&lt;/p&gt;" style="verticalAlign=top;align=left;overflow=fill;html=1;whiteSpace=wrap;fillColor=light-dark(#CCFFCC,var(--ge-dark-color, #121212));" parent="1" vertex="1">
          <mxGeometry x="830" y="580" width="290" height="200" as="geometry" />
        </mxCell>
        <mxCell id="gdJZIKCDMwB3gfGJZfGT-19" value="&lt;p style=&quot;margin:0px;margin-top:4px;text-align:center;&quot;&gt;&lt;i&gt;&amp;lt;&amp;lt;value&amp;gt;&amp;gt;&lt;/i&gt;&lt;br&gt;&lt;b&gt;GuestId&lt;/b&gt;&lt;/p&gt;&lt;hr size=&quot;1&quot; style=&quot;border-style:solid;&quot;&gt;&lt;p style=&quot;margin:0px;margin-left:4px;&quot;&gt;+ Value: Guid&lt;br&gt;&lt;/p&gt;" style="verticalAlign=top;align=left;overflow=fill;html=1;whiteSpace=wrap;fillColor=light-dark(#FFFFCC,var(--ge-dark-color, #121212));" parent="1" vertex="1">
          <mxGeometry x="730.3199999999999" y="470" width="110" height="70" as="geometry" />
        </mxCell>
        <mxCell id="gdJZIKCDMwB3gfGJZfGT-20" value="&lt;p style=&quot;margin:0px;margin-top:4px;text-align:center;&quot;&gt;&lt;i&gt;&amp;lt;&amp;lt;value&amp;gt;&amp;gt;&lt;/i&gt;&lt;br&gt;&lt;b&gt;FirstName&lt;/b&gt;&lt;/p&gt;&lt;hr size=&quot;1&quot; style=&quot;border-style:solid;&quot;&gt;&lt;p style=&quot;margin:0px;margin-left:4px;&quot;&gt;+ Value: string&lt;br&gt;&lt;/p&gt;" style="verticalAlign=top;align=left;overflow=fill;html=1;whiteSpace=wrap;fillColor=light-dark(#FFFFCC,var(--ge-dark-color, #121212));" parent="1" vertex="1">
          <mxGeometry x="970.3199999999999" y="390" width="110" height="70" as="geometry" />
        </mxCell>
        <mxCell id="gdJZIKCDMwB3gfGJZfGT-21" value="&lt;p style=&quot;margin:0px;margin-top:4px;text-align:center;&quot;&gt;&lt;i&gt;&amp;lt;&amp;lt;value&amp;gt;&amp;gt;&lt;/i&gt;&lt;br&gt;&lt;b&gt;LastName&lt;/b&gt;&lt;/p&gt;&lt;hr size=&quot;1&quot; style=&quot;border-style:solid;&quot;&gt;&lt;p style=&quot;margin:0px;margin-left:4px;&quot;&gt;+ Value: string&lt;br&gt;&lt;/p&gt;" style="verticalAlign=top;align=left;overflow=fill;html=1;whiteSpace=wrap;fillColor=light-dark(#FFFFCC,var(--ge-dark-color, #121212));" parent="1" vertex="1">
          <mxGeometry x="1250" y="480" width="110" height="70" as="geometry" />
        </mxCell>
        <mxCell id="gdJZIKCDMwB3gfGJZfGT-22" value="&lt;p style=&quot;margin:0px;margin-top:4px;text-align:center;&quot;&gt;&lt;i&gt;&amp;lt;&amp;lt;value&amp;gt;&amp;gt;&lt;/i&gt;&lt;br&gt;&lt;b&gt;Email&lt;/b&gt;&lt;/p&gt;&lt;hr size=&quot;1&quot; style=&quot;border-style:solid;&quot;&gt;&lt;p style=&quot;margin:0px;margin-left:4px;&quot;&gt;+ Value: string&lt;br&gt;&lt;/p&gt;" style="verticalAlign=top;align=left;overflow=fill;html=1;whiteSpace=wrap;fillColor=light-dark(#FFFFCC,var(--ge-dark-color, #121212));" parent="1" vertex="1">
          <mxGeometry x="1100" y="480" width="110" height="70" as="geometry" />
        </mxCell>
        <mxCell id="gdJZIKCDMwB3gfGJZfGT-23" value="" style="endArrow=classic;html=1;rounded=0;entryX=0;entryY=0.5;entryDx=0;entryDy=0;exitX=1;exitY=0.946;exitDx=0;exitDy=0;exitPerimeter=0;" parent="1" source="gdJZIKCDMwB3gfGJZfGT-9" target="gdJZIKCDMwB3gfGJZfGT-12" edge="1">
          <mxGeometry width="50" height="50" relative="1" as="geometry">
            <mxPoint x="245" y="420" as="sourcePoint" />
            <mxPoint x="295" y="370" as="targetPoint" />
          </mxGeometry>
        </mxCell>
        <mxCell id="gdJZIKCDMwB3gfGJZfGT-24" value="&lt;font style=&quot;font-size: 18px;&quot;&gt;1&lt;/font&gt;" style="edgeLabel;html=1;align=center;verticalAlign=middle;resizable=0;points=[];" parent="gdJZIKCDMwB3gfGJZfGT-23" vertex="1" connectable="0">
          <mxGeometry x="0.6464" y="2" relative="1" as="geometry">
            <mxPoint x="-13" y="17" as="offset" />
          </mxGeometry>
        </mxCell>
        <mxCell id="gdJZIKCDMwB3gfGJZfGT-25" value="" style="endArrow=classic;html=1;rounded=0;exitX=-0.012;exitY=0.163;exitDx=0;exitDy=0;exitPerimeter=0;" parent="1" source="gdJZIKCDMwB3gfGJZfGT-9" target="gdJZIKCDMwB3gfGJZfGT-13" edge="1">
          <mxGeometry width="50" height="50" relative="1" as="geometry">
            <mxPoint x="55" y="416" as="sourcePoint" />
            <mxPoint x="-25" y="370" as="targetPoint" />
          </mxGeometry>
        </mxCell>
        <mxCell id="gdJZIKCDMwB3gfGJZfGT-26" value="&lt;font style=&quot;font-size: 18px;&quot;&gt;1&lt;/font&gt;" style="edgeLabel;html=1;align=center;verticalAlign=middle;resizable=0;points=[];" parent="gdJZIKCDMwB3gfGJZfGT-25" vertex="1" connectable="0">
          <mxGeometry x="0.6464" y="2" relative="1" as="geometry">
            <mxPoint x="-3" y="10" as="offset" />
          </mxGeometry>
        </mxCell>
        <mxCell id="gdJZIKCDMwB3gfGJZfGT-27" value="" style="endArrow=classic;html=1;rounded=0;exitX=-0.002;exitY=0.456;exitDx=0;exitDy=0;entryX=1;entryY=0.5;entryDx=0;entryDy=0;exitPerimeter=0;" parent="1" source="gdJZIKCDMwB3gfGJZfGT-9" target="gdJZIKCDMwB3gfGJZfGT-14" edge="1">
          <mxGeometry width="50" height="50" relative="1" as="geometry">
            <mxPoint x="55" y="438" as="sourcePoint" />
            <mxPoint x="-25" y="448" as="targetPoint" />
          </mxGeometry>
        </mxCell>
        <mxCell id="gdJZIKCDMwB3gfGJZfGT-28" value="&lt;font style=&quot;font-size: 18px;&quot;&gt;1&lt;/font&gt;" style="edgeLabel;html=1;align=center;verticalAlign=middle;resizable=0;points=[];" parent="gdJZIKCDMwB3gfGJZfGT-27" vertex="1" connectable="0">
          <mxGeometry x="0.6464" y="2" relative="1" as="geometry">
            <mxPoint x="-3" y="10" as="offset" />
          </mxGeometry>
        </mxCell>
        <mxCell id="gdJZIKCDMwB3gfGJZfGT-29" value="1" style="endArrow=open;html=1;endSize=12;startArrow=diamondThin;startSize=14;startFill=1;edgeStyle=orthogonalEdgeStyle;align=left;verticalAlign=bottom;rounded=0;entryX=0.5;entryY=0;entryDx=0;entryDy=0;exitX=0.583;exitY=1;exitDx=0;exitDy=0;exitPerimeter=0;" parent="1" source="gdJZIKCDMwB3gfGJZfGT-9" target="gdJZIKCDMwB3gfGJZfGT-15" edge="1">
          <mxGeometry x="0.6667" y="5" relative="1" as="geometry">
            <mxPoint x="258" y="761" as="sourcePoint" />
            <mxPoint x="295" y="580" as="targetPoint" />
            <mxPoint as="offset" />
          </mxGeometry>
        </mxCell>
        <mxCell id="gdJZIKCDMwB3gfGJZfGT-30" value="&lt;p style=&quot;margin:0px;margin-top:4px;text-align:center;&quot;&gt;&lt;i&gt;&amp;lt;&amp;lt;value&amp;gt;&amp;gt;&lt;/i&gt;&lt;br&gt;&lt;b&gt;MaxNoOfGuests&lt;/b&gt;&lt;/p&gt;&lt;hr size=&quot;1&quot; style=&quot;border-style:solid;&quot;&gt;&lt;p style=&quot;margin:0px;margin-left:4px;&quot;&gt;+ Value: int&lt;br&gt;&lt;/p&gt;" style="verticalAlign=top;align=left;overflow=fill;html=1;whiteSpace=wrap;fillColor=light-dark(#FFFFCC,var(--ge-dark-color, #121212));" parent="1" vertex="1">
          <mxGeometry x="-135" y="700" width="110" height="70" as="geometry" />
        </mxCell>
        <mxCell id="gdJZIKCDMwB3gfGJZfGT-31" value="" style="endArrow=classic;html=1;rounded=0;entryX=0.391;entryY=1.03;entryDx=0;entryDy=0;exitX=0.276;exitY=-0.001;exitDx=0;exitDy=0;exitPerimeter=0;entryPerimeter=0;" parent="1" source="gdJZIKCDMwB3gfGJZfGT-9" target="gdJZIKCDMwB3gfGJZfGT-10" edge="1">
          <mxGeometry width="50" height="50" relative="1" as="geometry">
            <mxPoint x="110" y="370" as="sourcePoint" />
            <mxPoint x="110" y="280" as="targetPoint" />
          </mxGeometry>
        </mxCell>
        <mxCell id="gdJZIKCDMwB3gfGJZfGT-32" value="&lt;font style=&quot;font-size: 18px;&quot;&gt;1&lt;/font&gt;" style="edgeLabel;html=1;align=center;verticalAlign=middle;resizable=0;points=[];" parent="gdJZIKCDMwB3gfGJZfGT-31" vertex="1" connectable="0">
          <mxGeometry x="0.6464" y="2" relative="1" as="geometry">
            <mxPoint x="-11" y="6" as="offset" />
          </mxGeometry>
        </mxCell>
        <mxCell id="gdJZIKCDMwB3gfGJZfGT-33" value="" style="endArrow=classic;html=1;rounded=0;entryX=1;entryY=0.5;entryDx=0;entryDy=0;" parent="1" target="gdJZIKCDMwB3gfGJZfGT-30" edge="1">
          <mxGeometry width="50" height="50" relative="1" as="geometry">
            <mxPoint x="43" y="735" as="sourcePoint" />
            <mxPoint x="-25" y="485" as="targetPoint" />
          </mxGeometry>
        </mxCell>
        <mxCell id="gdJZIKCDMwB3gfGJZfGT-34" value="&lt;font style=&quot;font-size: 18px;&quot;&gt;1&lt;/font&gt;" style="edgeLabel;html=1;align=center;verticalAlign=middle;resizable=0;points=[];" parent="gdJZIKCDMwB3gfGJZfGT-33" vertex="1" connectable="0">
          <mxGeometry x="0.6464" y="2" relative="1" as="geometry">
            <mxPoint x="-3" y="10" as="offset" />
          </mxGeometry>
        </mxCell>
        <mxCell id="gdJZIKCDMwB3gfGJZfGT-35" value="" style="endArrow=classic;html=1;rounded=0;exitX=0.003;exitY=0.137;exitDx=0;exitDy=0;exitPerimeter=0;" parent="1" source="gdJZIKCDMwB3gfGJZfGT-18" edge="1">
          <mxGeometry width="50" height="50" relative="1" as="geometry">
            <mxPoint x="895.3399999999999" y="575" as="sourcePoint" />
            <mxPoint x="800" y="551" as="targetPoint" />
            <Array as="points">
              <mxPoint x="800" y="605" />
            </Array>
          </mxGeometry>
        </mxCell>
        <mxCell id="gdJZIKCDMwB3gfGJZfGT-36" value="&lt;font style=&quot;font-size: 18px;&quot;&gt;1&lt;/font&gt;" style="edgeLabel;html=1;align=center;verticalAlign=middle;resizable=0;points=[];" parent="gdJZIKCDMwB3gfGJZfGT-35" vertex="1" connectable="0">
          <mxGeometry x="0.6464" y="2" relative="1" as="geometry">
            <mxPoint x="-11" y="6" as="offset" />
          </mxGeometry>
        </mxCell>
        <mxCell id="gdJZIKCDMwB3gfGJZfGT-37" value="" style="endArrow=classic;html=1;rounded=0;entryX=0.5;entryY=1;entryDx=0;entryDy=0;" parent="1" target="gdJZIKCDMwB3gfGJZfGT-20" edge="1">
          <mxGeometry width="50" height="50" relative="1" as="geometry">
            <mxPoint x="1030" y="576" as="sourcePoint" />
            <mxPoint x="900.3399999999999" y="520" as="targetPoint" />
          </mxGeometry>
        </mxCell>
        <mxCell id="gdJZIKCDMwB3gfGJZfGT-38" value="&lt;font style=&quot;font-size: 18px;&quot;&gt;1&lt;/font&gt;" style="edgeLabel;html=1;align=center;verticalAlign=middle;resizable=0;points=[];" parent="gdJZIKCDMwB3gfGJZfGT-37" vertex="1" connectable="0">
          <mxGeometry x="0.6464" y="2" relative="1" as="geometry">
            <mxPoint x="-11" y="6" as="offset" />
          </mxGeometry>
        </mxCell>
        <mxCell id="gdJZIKCDMwB3gfGJZfGT-39" value="" style="endArrow=classic;html=1;rounded=0;exitX=0.996;exitY=0.867;exitDx=0;exitDy=0;exitPerimeter=0;" parent="1" source="gdJZIKCDMwB3gfGJZfGT-18" edge="1">
          <mxGeometry width="50" height="50" relative="1" as="geometry">
            <mxPoint x="911.3399999999999" y="597" as="sourcePoint" />
            <mxPoint x="1305" y="550" as="targetPoint" />
            <Array as="points">
              <mxPoint x="1305" y="753" />
            </Array>
          </mxGeometry>
        </mxCell>
        <mxCell id="gdJZIKCDMwB3gfGJZfGT-40" value="&lt;font style=&quot;font-size: 18px;&quot;&gt;1&lt;/font&gt;" style="edgeLabel;html=1;align=center;verticalAlign=middle;resizable=0;points=[];" parent="gdJZIKCDMwB3gfGJZfGT-39" vertex="1" connectable="0">
          <mxGeometry x="0.6464" y="2" relative="1" as="geometry">
            <mxPoint x="17" y="-45" as="offset" />
          </mxGeometry>
        </mxCell>
        <mxCell id="gdJZIKCDMwB3gfGJZfGT-41" value="" style="endArrow=classic;html=1;rounded=0;exitX=1;exitY=0.5;exitDx=0;exitDy=0;" parent="1" source="gdJZIKCDMwB3gfGJZfGT-18" edge="1">
          <mxGeometry width="50" height="50" relative="1" as="geometry">
            <mxPoint x="923.3399999999999" y="750" as="sourcePoint" />
            <mxPoint x="1150" y="550" as="targetPoint" />
            <Array as="points">
              <mxPoint x="1150" y="680" />
            </Array>
          </mxGeometry>
        </mxCell>
        <mxCell id="gdJZIKCDMwB3gfGJZfGT-42" value="&lt;font style=&quot;font-size: 18px;&quot;&gt;1&lt;/font&gt;" style="edgeLabel;html=1;align=center;verticalAlign=middle;resizable=0;points=[];" parent="gdJZIKCDMwB3gfGJZfGT-41" vertex="1" connectable="0">
          <mxGeometry x="0.6464" y="2" relative="1" as="geometry">
            <mxPoint x="22" y="-6" as="offset" />
          </mxGeometry>
        </mxCell>
        <mxCell id="gdJZIKCDMwB3gfGJZfGT-43" value="&lt;p style=&quot;margin:0px;margin-top:4px;text-align:center;&quot;&gt;&lt;i&gt;&amp;lt;&amp;lt;value&amp;gt;&amp;gt;&lt;/i&gt;&lt;br&gt;&lt;b&gt;LocationCapacity&lt;/b&gt;&lt;/p&gt;&lt;hr size=&quot;1&quot; style=&quot;border-style:solid;&quot;&gt;&lt;p style=&quot;margin:0px;margin-left:4px;&quot;&gt;+ Value: int&lt;br&gt;&lt;/p&gt;" style="verticalAlign=top;align=left;overflow=fill;html=1;whiteSpace=wrap;fillColor=light-dark(#FFFFCC,var(--ge-dark-color, #121212));" parent="1" vertex="1">
          <mxGeometry x="202.5" y="1189.9999999999998" width="110" height="70" as="geometry" />
        </mxCell>
        <mxCell id="gdJZIKCDMwB3gfGJZfGT-44" value="" style="endArrow=classic;html=1;rounded=0;entryX=1;entryY=0.5;entryDx=0;entryDy=0;exitX=-0.007;exitY=0.831;exitDx=0;exitDy=0;exitPerimeter=0;" parent="1" source="gdJZIKCDMwB3gfGJZfGT-15" target="gdJZIKCDMwB3gfGJZfGT-16" edge="1">
          <mxGeometry width="50" height="50" relative="1" as="geometry">
            <mxPoint x="114" y="786.83" as="sourcePoint" />
            <mxPoint x="35" y="808.83" as="targetPoint" />
          </mxGeometry>
        </mxCell>
        <mxCell id="gdJZIKCDMwB3gfGJZfGT-45" value="&lt;font style=&quot;font-size: 18px;&quot;&gt;1&lt;/font&gt;" style="edgeLabel;html=1;align=center;verticalAlign=middle;resizable=0;points=[];" parent="gdJZIKCDMwB3gfGJZfGT-44" vertex="1" connectable="0">
          <mxGeometry x="0.6464" y="2" relative="1" as="geometry">
            <mxPoint x="-3" y="22" as="offset" />
          </mxGeometry>
        </mxCell>
        <mxCell id="gdJZIKCDMwB3gfGJZfGT-46" value="" style="endArrow=classic;html=1;rounded=0;exitX=-0.004;exitY=0.307;exitDx=0;exitDy=0;exitPerimeter=0;entryX=1;entryY=0.5;entryDx=0;entryDy=0;" parent="1" source="gdJZIKCDMwB3gfGJZfGT-15" target="gdJZIKCDMwB3gfGJZfGT-17" edge="1">
          <mxGeometry width="50" height="50" relative="1" as="geometry">
            <mxPoint x="110" y="1080.83" as="sourcePoint" />
            <mxPoint x="25" y="1053.83" as="targetPoint" />
          </mxGeometry>
        </mxCell>
        <mxCell id="gdJZIKCDMwB3gfGJZfGT-47" value="&lt;font style=&quot;font-size: 18px;&quot;&gt;1&lt;/font&gt;" style="edgeLabel;html=1;align=center;verticalAlign=middle;resizable=0;points=[];" parent="gdJZIKCDMwB3gfGJZfGT-46" vertex="1" connectable="0">
          <mxGeometry x="0.6464" y="2" relative="1" as="geometry">
            <mxPoint x="-3" y="10" as="offset" />
          </mxGeometry>
        </mxCell>
        <mxCell id="gdJZIKCDMwB3gfGJZfGT-48" value="" style="endArrow=classic;html=1;rounded=0;exitX=0.5;exitY=1;exitDx=0;exitDy=0;entryX=0.5;entryY=0;entryDx=0;entryDy=0;" parent="1" source="gdJZIKCDMwB3gfGJZfGT-15" target="gdJZIKCDMwB3gfGJZfGT-43" edge="1">
          <mxGeometry width="50" height="50" relative="1" as="geometry">
            <mxPoint x="123" y="1029.83" as="sourcePoint" />
            <mxPoint x="35" y="1063.83" as="targetPoint" />
          </mxGeometry>
        </mxCell>
        <mxCell id="gdJZIKCDMwB3gfGJZfGT-49" value="&lt;font style=&quot;font-size: 18px;&quot;&gt;1&lt;/font&gt;" style="edgeLabel;html=1;align=center;verticalAlign=middle;resizable=0;points=[];" parent="gdJZIKCDMwB3gfGJZfGT-48" vertex="1" connectable="0">
          <mxGeometry x="0.6464" y="2" relative="1" as="geometry">
            <mxPoint x="8" y="-9" as="offset" />
          </mxGeometry>
        </mxCell>
        <mxCell id="gdJZIKCDMwB3gfGJZfGT-50" value="&lt;font style=&quot;font-size: 18px;&quot;&gt;attends&lt;/font&gt;" style="endArrow=open;endSize=12;dashed=1;html=1;rounded=0;exitX=0.997;exitY=0.71;exitDx=0;exitDy=0;exitPerimeter=0;entryX=0.005;entryY=0.399;entryDx=0;entryDy=0;entryPerimeter=0;" parent="1" source="gdJZIKCDMwB3gfGJZfGT-9" target="gdJZIKCDMwB3gfGJZfGT-18" edge="1">
          <mxGeometry x="0.1794" y="-23" width="160" relative="1" as="geometry">
            <mxPoint x="560" y="700" as="sourcePoint" />
            <mxPoint x="760" y="680" as="targetPoint" />
            <Array as="points" />
            <mxPoint as="offset" />
          </mxGeometry>
        </mxCell>
        <mxCell id="gdJZIKCDMwB3gfGJZfGT-56" value="&lt;font style=&quot;font-size: 18px;&quot;&gt;0..*&lt;/font&gt;" style="edgeLabel;html=1;align=center;verticalAlign=middle;resizable=0;points=[];" parent="gdJZIKCDMwB3gfGJZfGT-50" vertex="1" connectable="0">
          <mxGeometry x="0.7965" y="-3" relative="1" as="geometry">
            <mxPoint x="1" y="21" as="offset" />
          </mxGeometry>
        </mxCell>
        <mxCell id="gdJZIKCDMwB3gfGJZfGT-51" value="" style="endArrow=classic;html=1;rounded=0;entryX=0;entryY=0.25;entryDx=0;entryDy=0;exitX=1.008;exitY=0.301;exitDx=0;exitDy=0;exitPerimeter=0;" parent="1" source="gdJZIKCDMwB3gfGJZfGT-9" target="gdJZIKCDMwB3gfGJZfGT-19" edge="1">
          <mxGeometry width="50" height="50" relative="1" as="geometry">
            <mxPoint x="343" y="368" as="sourcePoint" />
            <mxPoint x="343" y="303" as="targetPoint" />
          </mxGeometry>
        </mxCell>
        <mxCell id="gdJZIKCDMwB3gfGJZfGT-52" value="&lt;font style=&quot;font-size: 18px;&quot;&gt;0..*&lt;/font&gt;" style="edgeLabel;html=1;align=center;verticalAlign=middle;resizable=0;points=[];" parent="gdJZIKCDMwB3gfGJZfGT-51" vertex="1" connectable="0">
          <mxGeometry x="0.6464" y="2" relative="1" as="geometry">
            <mxPoint y="30" as="offset" />
          </mxGeometry>
        </mxCell>
        <mxCell id="gdJZIKCDMwB3gfGJZfGT-54" value="" style="endArrow=classic;html=1;rounded=0;exitX=0.091;exitY=1.001;exitDx=0;exitDy=0;exitPerimeter=0;entryX=0.75;entryY=0;entryDx=0;entryDy=0;" parent="1" source="gdJZIKCDMwB3gfGJZfGT-9" target="gdJZIKCDMwB3gfGJZfGT-17" edge="1">
          <mxGeometry width="50" height="50" relative="1" as="geometry">
            <mxPoint x="54" y="553" as="sourcePoint" />
            <mxPoint x="-25" y="575" as="targetPoint" />
            <Array as="points">
              <mxPoint x="86" y="840" />
              <mxPoint x="-12" y="840" />
            </Array>
          </mxGeometry>
        </mxCell>
        <mxCell id="gdJZIKCDMwB3gfGJZfGT-55" value="&lt;font style=&quot;font-size: 18px;&quot;&gt;1&lt;/font&gt;" style="edgeLabel;html=1;align=center;verticalAlign=middle;resizable=0;points=[];" parent="gdJZIKCDMwB3gfGJZfGT-54" vertex="1" connectable="0">
          <mxGeometry x="0.6464" y="2" relative="1" as="geometry">
            <mxPoint x="-18" y="-9" as="offset" />
          </mxGeometry>
        </mxCell>
        <mxCell id="gdJZIKCDMwB3gfGJZfGT-57" value="&lt;p style=&quot;margin:0px;margin-top:4px;text-align:center;&quot;&gt;&lt;i&gt;&amp;lt;&amp;lt;aggregate&amp;gt;&amp;gt;&lt;/i&gt;&lt;br&gt;&lt;b&gt;Invitation&lt;/b&gt;&lt;/p&gt;&lt;hr size=&quot;1&quot; style=&quot;border-style:solid;&quot;&gt;&lt;p style=&quot;margin:0px;margin-left:4px;&quot;&gt;+ Id: InvitationId&lt;/p&gt;&lt;p style=&quot;margin:0px;margin-left:4px;&quot;&gt;- status: Status&lt;/p&gt;&lt;p style=&quot;margin:0px;margin-left:4px;&quot;&gt;- invitee: Guest&lt;/p&gt;&lt;hr size=&quot;1&quot; style=&quot;border-style:solid;&quot;&gt;&lt;p style=&quot;margin:0px;margin-left:4px;&quot;&gt;&lt;br&gt;&lt;/p&gt;" style="verticalAlign=top;align=left;overflow=fill;html=1;whiteSpace=wrap;fillColor=light-dark(#CCFFCC,var(--ge-dark-color, #121212));" parent="1" vertex="1">
          <mxGeometry x="630.28" y="40" width="220" height="90" as="geometry" />
        </mxCell>
        <mxCell id="gdJZIKCDMwB3gfGJZfGT-58" value="&lt;p style=&quot;margin:0px;margin-top:4px;text-align:center;&quot;&gt;&lt;i&gt;&amp;lt;&amp;lt;value&amp;gt;&amp;gt;&lt;/i&gt;&lt;br&gt;&lt;b&gt;InvitationId&lt;/b&gt;&lt;/p&gt;&lt;hr size=&quot;1&quot; style=&quot;border-style:solid;&quot;&gt;&lt;p style=&quot;margin:0px;margin-left:4px;&quot;&gt;+ Value: Guid&lt;br&gt;&lt;/p&gt;" style="verticalAlign=top;align=left;overflow=fill;html=1;whiteSpace=wrap;fillColor=light-dark(#FFFFCC,var(--ge-dark-color, #121212));" parent="1" vertex="1">
          <mxGeometry x="425.28" y="50" width="110" height="70" as="geometry" />
        </mxCell>
        <mxCell id="gdJZIKCDMwB3gfGJZfGT-59" value="" style="endArrow=classic;html=1;rounded=0;entryX=1;entryY=0.5;entryDx=0;entryDy=0;exitX=0;exitY=0.5;exitDx=0;exitDy=0;" parent="1" source="gdJZIKCDMwB3gfGJZfGT-57" target="gdJZIKCDMwB3gfGJZfGT-58" edge="1">
          <mxGeometry width="50" height="50" relative="1" as="geometry">
            <mxPoint x="458.28" y="608" as="sourcePoint" />
            <mxPoint x="458.28" y="543" as="targetPoint" />
          </mxGeometry>
        </mxCell>
        <mxCell id="gdJZIKCDMwB3gfGJZfGT-60" value="&lt;font style=&quot;font-size: 18px;&quot;&gt;1&lt;/font&gt;" style="edgeLabel;html=1;align=center;verticalAlign=middle;resizable=0;points=[];" parent="gdJZIKCDMwB3gfGJZfGT-59" vertex="1" connectable="0">
          <mxGeometry x="0.6464" y="2" relative="1" as="geometry">
            <mxPoint y="13" as="offset" />
          </mxGeometry>
        </mxCell>
        <mxCell id="gdJZIKCDMwB3gfGJZfGT-61" value="" style="endArrow=classic;html=1;rounded=0;entryX=0.438;entryY=0.997;entryDx=0;entryDy=0;exitX=0.75;exitY=0;exitDx=0;exitDy=0;entryPerimeter=0;" parent="1" source="gdJZIKCDMwB3gfGJZfGT-57" target="gdJZIKCDMwB3gfGJZfGT-11" edge="1">
          <mxGeometry width="50" height="50" relative="1" as="geometry">
            <mxPoint x="765.28" y="190" as="sourcePoint" />
            <mxPoint x="735.28" y="130" as="targetPoint" />
          </mxGeometry>
        </mxCell>
        <mxCell id="gdJZIKCDMwB3gfGJZfGT-62" value="&lt;font style=&quot;font-size: 18px;&quot;&gt;1&lt;/font&gt;" style="edgeLabel;html=1;align=center;verticalAlign=middle;resizable=0;points=[];" parent="gdJZIKCDMwB3gfGJZfGT-61" vertex="1" connectable="0">
          <mxGeometry x="0.6464" y="2" relative="1" as="geometry">
            <mxPoint x="-11" y="6" as="offset" />
          </mxGeometry>
        </mxCell>
        <mxCell id="gdJZIKCDMwB3gfGJZfGT-74" value="&lt;p style=&quot;margin:0px;margin-top:4px;text-align:center;&quot;&gt;&lt;i&gt;&amp;lt;&amp;lt;aggregate&amp;gt;&amp;gt;&lt;/i&gt;&lt;br&gt;&lt;b&gt;RequestToJoin&lt;/b&gt;&lt;/p&gt;&lt;hr size=&quot;1&quot; style=&quot;border-style:solid;&quot;&gt;&lt;p style=&quot;margin:0px;margin-left:4px;&quot;&gt;+ Id: RequestToJoinId&lt;/p&gt;&lt;p style=&quot;margin:0px;margin-left:4px;&quot;&gt;- status: Status&lt;/p&gt;&lt;p style=&quot;margin:0px;margin-left:4px;&quot;&gt;- reasion: Reasion&lt;/p&gt;&lt;p style=&quot;margin:0px;margin-left:4px;&quot;&gt;- invitor: Guest&lt;/p&gt;&lt;p style=&quot;margin:0px;margin-left:4px;&quot;&gt;- event: Event&lt;/p&gt;&lt;hr size=&quot;1&quot; style=&quot;border-style:solid;&quot;&gt;&lt;p style=&quot;margin:0px;margin-left:4px;&quot;&gt;&lt;span style=&quot;background-color: transparent; color: light-dark(rgb(0, 0, 0), rgb(255, 255, 255));&quot;&gt;+ ApproveJoinRequest(&lt;/span&gt;&lt;span style=&quot;background-color: transparent; color: light-dark(rgb(0, 0, 0), rgb(255, 255, 255));&quot;&gt;): void&lt;/span&gt;&lt;/p&gt;&lt;p style=&quot;margin: 0px 0px 0px 4px;&quot;&gt;+ DeclineJoinRequest(&lt;span style=&quot;background-color: transparent; color: light-dark(rgb(0, 0, 0), rgb(255, 255, 255));&quot;&gt;): void&lt;/span&gt;&lt;/p&gt;" style="verticalAlign=top;align=left;overflow=fill;html=1;whiteSpace=wrap;fillColor=light-dark(#CCFFCC,var(--ge-dark-color, #121212));" parent="1" vertex="1">
          <mxGeometry x="800.32" y="1130" width="190" height="180" as="geometry" />
        </mxCell>
        <mxCell id="gdJZIKCDMwB3gfGJZfGT-82" value="&lt;p style=&quot;margin:0px;margin-top:4px;text-align:center;&quot;&gt;&lt;i&gt;&amp;lt;&amp;lt;value&amp;gt;&amp;gt;&lt;/i&gt;&lt;br&gt;&lt;b&gt;RequestToJoinId&lt;/b&gt;&lt;/p&gt;&lt;hr size=&quot;1&quot; style=&quot;border-style:solid;&quot;&gt;&lt;p style=&quot;margin:0px;margin-left:4px;&quot;&gt;+ Value: Guid&lt;br&gt;&lt;/p&gt;" style="verticalAlign=top;align=left;overflow=fill;html=1;whiteSpace=wrap;fillColor=light-dark(#FFFFCC,var(--ge-dark-color, #121212));" parent="1" vertex="1">
          <mxGeometry x="889.9999999999999" y="970" width="110" height="70" as="geometry" />
        </mxCell>
        <mxCell id="gdJZIKCDMwB3gfGJZfGT-83" value="" style="endArrow=classic;html=1;rounded=0;entryX=0.5;entryY=1;entryDx=0;entryDy=0;exitX=0.75;exitY=0;exitDx=0;exitDy=0;" parent="1" source="gdJZIKCDMwB3gfGJZfGT-74" target="gdJZIKCDMwB3gfGJZfGT-82" edge="1">
          <mxGeometry width="50" height="50" relative="1" as="geometry">
            <mxPoint x="435.3" y="1140" as="sourcePoint" />
            <mxPoint x="385.3" y="1080" as="targetPoint" />
          </mxGeometry>
        </mxCell>
        <mxCell id="gdJZIKCDMwB3gfGJZfGT-84" value="&lt;font style=&quot;font-size: 18px;&quot;&gt;1&lt;/font&gt;" style="edgeLabel;html=1;align=center;verticalAlign=middle;resizable=0;points=[];" parent="gdJZIKCDMwB3gfGJZfGT-83" vertex="1" connectable="0">
          <mxGeometry x="0.6464" y="2" relative="1" as="geometry">
            <mxPoint x="-11" y="6" as="offset" />
          </mxGeometry>
        </mxCell>
        <mxCell id="gdJZIKCDMwB3gfGJZfGT-86" value="&lt;p style=&quot;margin:0px;margin-top:4px;text-align:center;&quot;&gt;&lt;i&gt;&amp;lt;&amp;lt;value&amp;gt;&amp;gt;&lt;/i&gt;&lt;br&gt;&lt;b&gt;Reasion&lt;/b&gt;&lt;/p&gt;&lt;hr size=&quot;1&quot; style=&quot;border-style:solid;&quot;&gt;&lt;p style=&quot;margin:0px;margin-left:4px;&quot;&gt;+ Value: string&lt;br&gt;&lt;/p&gt;" style="verticalAlign=top;align=left;overflow=fill;html=1;whiteSpace=wrap;fillColor=light-dark(#FFFFCC,var(--ge-dark-color, #121212));" parent="1" vertex="1">
          <mxGeometry x="1100" y="1190" width="110" height="70" as="geometry" />
        </mxCell>
        <mxCell id="gdJZIKCDMwB3gfGJZfGT-87" value="" style="endArrow=classic;html=1;rounded=0;entryX=0.034;entryY=0.579;entryDx=0;entryDy=0;exitX=0.998;exitY=0.548;exitDx=0;exitDy=0;entryPerimeter=0;exitPerimeter=0;" parent="1" source="gdJZIKCDMwB3gfGJZfGT-74" target="gdJZIKCDMwB3gfGJZfGT-86" edge="1">
          <mxGeometry width="50" height="50" relative="1" as="geometry">
            <mxPoint x="905.3" y="1140" as="sourcePoint" />
            <mxPoint x="940.3" y="1050" as="targetPoint" />
          </mxGeometry>
        </mxCell>
        <mxCell id="gdJZIKCDMwB3gfGJZfGT-88" value="&lt;font style=&quot;font-size: 18px;&quot;&gt;1&lt;/font&gt;" style="edgeLabel;html=1;align=center;verticalAlign=middle;resizable=0;points=[];" parent="gdJZIKCDMwB3gfGJZfGT-87" vertex="1" connectable="0">
          <mxGeometry x="0.6464" y="2" relative="1" as="geometry">
            <mxPoint x="-2" y="21" as="offset" />
          </mxGeometry>
        </mxCell>
        <mxCell id="gWL1Myv30mhK0BFrivG--1" value="&lt;font style=&quot;font-size: 18px;&quot;&gt;extends&lt;/font&gt;" style="endArrow=open;endSize=12;dashed=1;html=1;rounded=0;entryX=0;entryY=0.75;entryDx=0;entryDy=0;exitX=0.874;exitY=-0.004;exitDx=0;exitDy=0;exitPerimeter=0;" edge="1" parent="1" source="gdJZIKCDMwB3gfGJZfGT-9" target="gdJZIKCDMwB3gfGJZfGT-57">
          <mxGeometry x="-0.0102" y="-48" width="160" relative="1" as="geometry">
            <mxPoint x="610" y="290" as="sourcePoint" />
            <mxPoint x="824" y="310" as="targetPoint" />
            <Array as="points">
              <mxPoint x="438" y="310" />
              <mxPoint x="580" y="310" />
              <mxPoint x="580" y="108" />
            </Array>
            <mxPoint as="offset" />
          </mxGeometry>
        </mxCell>
        <mxCell id="gWL1Myv30mhK0BFrivG--2" value="&lt;font style=&quot;font-size: 18px;&quot;&gt;0..*&lt;/font&gt;" style="edgeLabel;html=1;align=center;verticalAlign=middle;resizable=0;points=[];" vertex="1" connectable="0" parent="gWL1Myv30mhK0BFrivG--1">
          <mxGeometry x="0.7965" y="-3" relative="1" as="geometry">
            <mxPoint x="24" y="19" as="offset" />
          </mxGeometry>
        </mxCell>
        <mxCell id="gWL1Myv30mhK0BFrivG--3" value="" style="endArrow=classic;html=1;rounded=0;entryX=0;entryY=0.5;entryDx=0;entryDy=0;exitX=0.601;exitY=-0.008;exitDx=0;exitDy=0;exitPerimeter=0;" edge="1" parent="1" source="gdJZIKCDMwB3gfGJZfGT-9" target="gdJZIKCDMwB3gfGJZfGT-58">
          <mxGeometry width="50" height="50" relative="1" as="geometry">
            <mxPoint x="477" y="177" as="sourcePoint" />
            <mxPoint x="453" y="30" as="targetPoint" />
            <Array as="points">
              <mxPoint x="315" y="85" />
            </Array>
          </mxGeometry>
        </mxCell>
        <mxCell id="gWL1Myv30mhK0BFrivG--4" value="&lt;font style=&quot;font-size: 18px;&quot;&gt;0..*&lt;/font&gt;" style="edgeLabel;html=1;align=center;verticalAlign=middle;resizable=0;points=[];" vertex="1" connectable="0" parent="gWL1Myv30mhK0BFrivG--3">
          <mxGeometry x="0.6464" y="2" relative="1" as="geometry">
            <mxPoint x="-22" y="-20" as="offset" />
          </mxGeometry>
        </mxCell>
        <mxCell id="gWL1Myv30mhK0BFrivG--5" value="&lt;font style=&quot;font-size: 18px;&quot;&gt;to&lt;/font&gt;" style="endArrow=open;endSize=12;dashed=1;html=1;rounded=0;exitX=0.997;exitY=0.567;exitDx=0;exitDy=0;exitPerimeter=0;entryX=0.375;entryY=-0.012;entryDx=0;entryDy=0;entryPerimeter=0;" edge="1" parent="1" source="gdJZIKCDMwB3gfGJZfGT-57" target="gdJZIKCDMwB3gfGJZfGT-18">
          <mxGeometry x="-0.0138" y="-29" width="160" relative="1" as="geometry">
            <mxPoint x="506" y="370" as="sourcePoint" />
            <mxPoint x="673" y="62" as="targetPoint" />
            <Array as="points">
              <mxPoint x="939" y="91" />
            </Array>
            <mxPoint as="offset" />
          </mxGeometry>
        </mxCell>
        <mxCell id="gWL1Myv30mhK0BFrivG--6" value="&lt;font style=&quot;font-size: 18px;&quot;&gt;1&lt;/font&gt;" style="edgeLabel;html=1;align=center;verticalAlign=middle;resizable=0;points=[];" vertex="1" connectable="0" parent="gWL1Myv30mhK0BFrivG--5">
          <mxGeometry x="0.7965" y="-3" relative="1" as="geometry">
            <mxPoint x="26" y="40" as="offset" />
          </mxGeometry>
        </mxCell>
        <mxCell id="gWL1Myv30mhK0BFrivG--7" value="" style="endArrow=classic;html=1;rounded=0;exitX=0.714;exitY=1.014;exitDx=0;exitDy=0;exitPerimeter=0;" edge="1" parent="1" source="gdJZIKCDMwB3gfGJZfGT-57" target="gdJZIKCDMwB3gfGJZfGT-19">
          <mxGeometry width="50" height="50" relative="1" as="geometry">
            <mxPoint x="805" y="-50" as="sourcePoint" />
            <mxPoint x="808" y="-100" as="targetPoint" />
          </mxGeometry>
        </mxCell>
        <mxCell id="gWL1Myv30mhK0BFrivG--8" value="&lt;font style=&quot;font-size: 18px;&quot;&gt;1&lt;/font&gt;" style="edgeLabel;html=1;align=center;verticalAlign=middle;resizable=0;points=[];" vertex="1" connectable="0" parent="gWL1Myv30mhK0BFrivG--7">
          <mxGeometry x="0.6464" y="2" relative="1" as="geometry">
            <mxPoint x="-11" y="6" as="offset" />
          </mxGeometry>
        </mxCell>
        <mxCell id="gWL1Myv30mhK0BFrivG--9" value="&lt;p style=&quot;margin:0px;margin-top:4px;text-align:center;&quot;&gt;&lt;i&gt;&amp;lt;&amp;lt;Enum&amp;gt;&amp;gt;&lt;/i&gt;&lt;br&gt;&lt;b&gt;Status&lt;/b&gt;&lt;/p&gt;&lt;hr size=&quot;1&quot; style=&quot;border-style:solid;&quot;&gt;&lt;p style=&quot;margin:0px;margin-left:4px;&quot;&gt;PENDING&lt;/p&gt;&lt;p style=&quot;margin:0px;margin-left:4px;&quot;&gt;ACCEPTED&lt;/p&gt;&lt;p style=&quot;margin:0px;margin-left:4px;&quot;&gt;REJECTED&lt;/p&gt;" style="verticalAlign=top;align=left;overflow=fill;html=1;whiteSpace=wrap;fillColor=light-dark(#FFCCCC,var(--ge-dark-color, #121212));" vertex="1" parent="1">
          <mxGeometry x="870" y="1370" width="110" height="90" as="geometry" />
        </mxCell>
        <mxCell id="gWL1Myv30mhK0BFrivG--10" value="" style="endArrow=classic;html=1;rounded=0;entryX=0.5;entryY=0;entryDx=0;entryDy=0;exitX=0.646;exitY=0.994;exitDx=0;exitDy=0;exitPerimeter=0;" edge="1" parent="1" source="gdJZIKCDMwB3gfGJZfGT-74" target="gWL1Myv30mhK0BFrivG--9">
          <mxGeometry width="50" height="50" relative="1" as="geometry">
            <mxPoint x="874.47" y="1250" as="sourcePoint" />
            <mxPoint x="874.47" y="1308" as="targetPoint" />
          </mxGeometry>
        </mxCell>
        <mxCell id="gWL1Myv30mhK0BFrivG--11" value="&lt;font style=&quot;font-size: 18px;&quot;&gt;1&lt;/font&gt;" style="edgeLabel;html=1;align=center;verticalAlign=middle;resizable=0;points=[];" vertex="1" connectable="0" parent="gWL1Myv30mhK0BFrivG--10">
          <mxGeometry x="0.6464" y="2" relative="1" as="geometry">
            <mxPoint x="19" y="-4" as="offset" />
          </mxGeometry>
        </mxCell>
        <mxCell id="gWL1Myv30mhK0BFrivG--16" value="&lt;span style=&quot;font-size: 18px;&quot;&gt;request&lt;/span&gt;" style="endArrow=open;endSize=12;dashed=1;html=1;rounded=0;exitX=0.707;exitY=1.022;exitDx=0;exitDy=0;entryX=1;entryY=0.398;entryDx=0;entryDy=0;entryPerimeter=0;exitPerimeter=0;" edge="1" parent="1" source="gdJZIKCDMwB3gfGJZfGT-18" target="gdJZIKCDMwB3gfGJZfGT-74">
          <mxGeometry x="-0.1414" y="41" width="160" relative="1" as="geometry">
            <mxPoint x="1400" y="580" as="sourcePoint" />
            <mxPoint x="1220" y="830" as="targetPoint" />
            <Array as="points">
              <mxPoint x="1040" y="1202" />
            </Array>
            <mxPoint as="offset" />
          </mxGeometry>
        </mxCell>
        <mxCell id="gWL1Myv30mhK0BFrivG--17" value="&lt;font style=&quot;font-size: 18px;&quot;&gt;1&lt;/font&gt;" style="edgeLabel;html=1;align=center;verticalAlign=middle;resizable=0;points=[];" vertex="1" connectable="0" parent="gWL1Myv30mhK0BFrivG--16">
          <mxGeometry x="0.7965" y="-3" relative="1" as="geometry">
            <mxPoint x="-20" y="-9" as="offset" />
          </mxGeometry>
        </mxCell>
        <mxCell id="gWL1Myv30mhK0BFrivG--20" value="&lt;span style=&quot;font-size: 18px;&quot;&gt;to&lt;/span&gt;" style="endArrow=open;endSize=12;dashed=1;html=1;rounded=0;entryX=0.938;entryY=1.007;entryDx=0;entryDy=0;entryPerimeter=0;exitX=0.008;exitY=0.38;exitDx=0;exitDy=0;exitPerimeter=0;" edge="1" parent="1" source="gdJZIKCDMwB3gfGJZfGT-74" target="gdJZIKCDMwB3gfGJZfGT-9">
          <mxGeometry x="0.3704" y="-31" width="160" relative="1" as="geometry">
            <mxPoint x="1010" y="1390" as="sourcePoint" />
            <mxPoint x="961" y="1190" as="targetPoint" />
            <Array as="points">
              <mxPoint x="470" y="1198" />
            </Array>
            <mxPoint as="offset" />
          </mxGeometry>
        </mxCell>
        <mxCell id="gWL1Myv30mhK0BFrivG--21" value="&lt;font style=&quot;font-size: 18px;&quot;&gt;1&lt;/font&gt;" style="edgeLabel;html=1;align=center;verticalAlign=middle;resizable=0;points=[];" vertex="1" connectable="0" parent="gWL1Myv30mhK0BFrivG--20">
          <mxGeometry x="0.7965" y="-3" relative="1" as="geometry">
            <mxPoint x="-32" y="-25" as="offset" />
          </mxGeometry>
        </mxCell>
        <mxCell id="gWL1Myv30mhK0BFrivG--24" value="" style="endArrow=classic;html=1;rounded=0;exitX=0.093;exitY=0.994;exitDx=0;exitDy=0;exitPerimeter=0;entryX=1;entryY=1;entryDx=0;entryDy=0;" edge="1" parent="1" source="gdJZIKCDMwB3gfGJZfGT-18" target="gdJZIKCDMwB3gfGJZfGT-12">
          <mxGeometry width="50" height="50" relative="1" as="geometry">
            <mxPoint x="850" y="760" as="sourcePoint" />
            <mxPoint x="653" y="802" as="targetPoint" />
            <Array as="points">
              <mxPoint x="857" y="800" />
            </Array>
          </mxGeometry>
        </mxCell>
        <mxCell id="gWL1Myv30mhK0BFrivG--25" value="&lt;font style=&quot;font-size: 18px;&quot;&gt;1&lt;/font&gt;" style="edgeLabel;html=1;align=center;verticalAlign=middle;resizable=0;points=[];" vertex="1" connectable="0" parent="gWL1Myv30mhK0BFrivG--24">
          <mxGeometry x="0.6464" y="2" relative="1" as="geometry">
            <mxPoint x="-11" y="12" as="offset" />
          </mxGeometry>
        </mxCell>
        <mxCell id="gWL1Myv30mhK0BFrivG--26" value="" style="endArrow=classic;html=1;rounded=0;entryX=0.5;entryY=1;entryDx=0;entryDy=0;exitX=0;exitY=0.25;exitDx=0;exitDy=0;" edge="1" parent="1" source="gdJZIKCDMwB3gfGJZfGT-74" target="gdJZIKCDMwB3gfGJZfGT-12">
          <mxGeometry width="50" height="50" relative="1" as="geometry">
            <mxPoint x="905" y="1140" as="sourcePoint" />
            <mxPoint x="905" y="1050" as="targetPoint" />
            <Array as="points">
              <mxPoint x="600" y="1175" />
            </Array>
          </mxGeometry>
        </mxCell>
        <mxCell id="gWL1Myv30mhK0BFrivG--27" value="&lt;font style=&quot;font-size: 18px;&quot;&gt;1&lt;/font&gt;" style="edgeLabel;html=1;align=center;verticalAlign=middle;resizable=0;points=[];" vertex="1" connectable="0" parent="gWL1Myv30mhK0BFrivG--26">
          <mxGeometry x="0.6464" y="2" relative="1" as="geometry">
            <mxPoint x="-11" y="6" as="offset" />
          </mxGeometry>
        </mxCell>
      </root>
    </mxGraphModel>
  </diagram>
</mxfile>
